<svg fill="none" height="220" viewBox="0 0 220 220" width="220" xmlns="http://www.w3.org/2000/svg" xmlns:xlink="http://www.w3.org/1999/xlink"><clipPath id="a"><path d="m0 0h220v220h-220z"/></clipPath><g clip-path="url(#a)"><path d="m45.5993 92.0333-27.8648-49.8968 48.6109 26.5788-15.0544-37.0865 39.6209 17.5888-4.7307-24.6141 113.5288 113.5285c9.245 8.495 14.745 20.6 14.745 33.657 0 18.597-11.111 35.193-28.304 42.279-5.333 2.2-10.984 3.355-16.793 3.432l-.619.005c-7.268 0-14.152-1.704-20.26-4.75-.334-.167-.669-.334-.998-.507-.335-.167-.664-.35-.989-.537-.329-.177-.653-.365-.978-.563-.263-.152-.522-.309-.78-.471-.208-.127-.411-.254-.614-.385-.279-.178-.552-.355-.821-.538-.35-.233-.694-.471-1.034-.719-.294-.208-.588-.421-.872-.634-.294-.218-.578-.436-.862-.659-.572-.456-1.14-.922-1.693-1.399-.273-.238-.547-.481-.821-.73l-110.3213-110.3215z" fill="#fcbc1d"/><path d="m133.162 171.787c0 14.766 8.996 27.432 21.805 32.812 4.236 1.782 8.89 2.766 13.773 2.766 5.298 0 10.325-1.158 14.844-3.235 4.977-2.287 9.337-5.691 12.754-9.888 4.99-6.124 7.981-13.94 7.981-22.455 0-10.378-4.443-19.719-11.532-26.222-6.331-5.81-14.776-9.355-24.047-9.355-.161 0-.32.002-.479.002-4.622.063-9.032 1.005-13.068 2.67-12.93 5.327-22.031 18.052-22.031 32.905z" fill="#f24125"/><path d="m191.91 157.761c-.792 0-1.571-.369-2.066-1.063-1.045-1.465-2.246-2.823-3.567-4.036-1.189-1.091-2.483-2.074-3.848-2.923-1.189-.739-1.553-2.302-.814-3.49.74-1.189 2.302-1.553 3.491-.814 1.631 1.014 3.178 2.189 4.598 3.492 1.582 1.451 3.017 3.075 4.267 4.828.813 1.14.548 2.722-.592 3.535-.446.318-.96.471-1.469.471z" fill="#fff"/><path d="m180.623 200.217c-.96 0-1.878-.547-2.305-1.477-.584-1.271-.027-2.776 1.245-3.361 3.586-1.648 6.804-4.143 9.306-7.217 3.807-4.672 5.818-10.334 5.818-16.374 0-2.222-.289-4.442-.858-6.6-.357-1.353.45-2.74 1.803-3.098 1.356-.356 2.741.451 3.098 1.804.681 2.579 1.026 5.235 1.026 7.893 0 7.221-2.406 13.989-6.957 19.575-2.988 3.671-6.833 6.653-11.12 8.622-.343.158-.702.233-1.056.233z" fill="#fff"/><g fill="#333"><path d="m133.162 171.788c0 14.765 8.996 27.431 21.805 32.811 4.136 1.74 8.67 2.719 13.426 2.764-3.578-.061-6.988-1.038-10.102-2.764-9.718-5.381-16.541-18.047-16.541-32.811 0-14.854 6.903-27.579 16.713-32.907 3.061-1.664 6.408-2.607 9.913-2.67h-.115c-4.622.063-9.032 1.006-13.068 2.67-12.93 5.328-22.031 18.053-22.031 32.907z" opacity=".27"/><path d="m204.179 177.535c-.076 0-.153-.004-.229-.011-1.394-.125-2.423-1.356-2.299-2.75.089-.988.134-1.992.134-2.986 0-13.346-7.95-25.308-20.253-30.476-4.051-1.704-8.355-2.569-12.791-2.569-1.4 0-2.534-1.134-2.534-2.534 0-1.399 1.134-2.534 2.534-2.534 5.115 0 10.079.997 14.755 2.964 14.189 5.96 23.357 19.757 23.357 35.148 0 1.144-.051 2.301-.153 3.438-.118 1.318-1.224 2.31-2.521 2.31z"/><path d="m201.314 188.65c-.341 0-.688-.07-1.021-.216-1.28-.565-1.861-2.06-1.297-3.341.495-1.124.932-2.289 1.298-3.463.416-1.337 1.839-2.082 3.173-1.667 1.337.417 2.082 1.838 1.666 3.174-.422 1.356-.926 2.702-1.498 3.999-.418.949-1.347 1.514-2.321 1.514z"/><path d="m168.74 209.9c-4.524 0-8.952-.785-13.162-2.334-1.314-.483-1.987-1.94-1.503-3.253.483-1.314 1.94-1.987 3.254-1.504 3.647 1.342 7.486 2.023 11.411 2.023l.479-.002c4.17-.058 8.253-.892 12.102-2.479 5.496-2.264 10.293-5.985 13.874-10.76.84-1.119 2.429-1.347 3.548-.507 1.12.84 1.347 2.428.507 3.548-4.128 5.504-9.66 9.794-15.998 12.405-4.442 1.832-9.152 2.795-13.999 2.861z"/><path d="m144.693 200.545c-.612 0-1.226-.221-1.713-.667-7.85-7.202-12.352-17.441-12.352-28.09 0-14.845 8.718-28.445 22.21-34.646 1.271-.585 2.777-.027 3.361 1.245.584 1.271.027 2.776-1.245 3.361-11.698 5.377-19.258 17.168-19.258 30.04 0 9.233 3.904 18.11 10.711 24.355 1.031.947 1.1 2.55.154 3.581-.499.545-1.183.821-1.868.821z"/><path d="m100.476 170.687c-.6485 0-1.2978-.248-1.792-.743l-94.88759-94.8871c-.98994-.99-.98994-2.5947 0-3.5842.98892-.9894 2.59472-.9894 3.58365 0l94.88794 94.8873c.99.99.99 2.595 0 3.584-.495.495-1.144.743-1.792.743z"/><path d="m168.756 220c-12.697 0-25.011-4.995-34.122-14.106l-27.08-27.08c-.99-.99-.99-2.594 0-3.584.989-.989 2.595-.989 3.584 0l27.08 27.08c9.99 9.989 24.289 14.45 38.248 11.931 1.374-.25 2.695.666 2.945 2.044.248 1.377-.667 2.696-2.044 2.944-2.868.518-5.749.771-8.611.771z"/><path d="m188.774 215.402c-.94 0-1.843-.525-2.281-1.426-.613-1.259-.089-2.775 1.17-3.388 4.293-2.089 8.196-4.874 11.6-8.278 13.436-13.436 16.473-34.482 7.385-51.178-.669-1.23-.215-2.768 1.014-3.438 1.231-.67 2.769-.214 3.438 1.014 4.874 8.955 6.794 19.486 5.406 29.653-1.434 10.51-6.158 20.031-13.659 27.533-3.804 3.803-8.166 6.916-12.966 9.252-.357.173-.735.256-1.107.256z"/><path d="m201.055 142.008c-.649 0-1.298-.248-1.792-.742l-71.347-71.3479c-.99-.9899-.99-2.5947 0-3.5841.989-.9894 2.595-.9894 3.583 0l71.347 71.347c.99.99.99 2.595 0 3.584-.494.495-1.143.743-1.791.743z"/><path d="m124.301 65.2538c-.648 0-1.298-.2473-1.792-.7421l-60.1855-60.18497c-.9899-.98994-.9899-2.59472 0-3.584154.9889-.989939 2.5947-.989939 3.5837 0l60.1848 60.185024c.99.9899.99 2.5947 0 3.5841-.494.4948-1.143.7421-1.791.7421z"/><path d="m83.6067 44.4463c-.6483 0-1.2976-.2473-1.7919-.7425l-13.1641-13.1642c-.99-.99-.99-2.5943 0-3.5842.9889-.9894 2.5947-.9899 3.5836 0l13.1642 13.1642c.9899.9899.9899 2.5942 0 3.5842-.4947.4952-1.1435.7425-1.7918.7425z"/><path d="m166.566 127.406c-.648 0-1.297-.248-1.791-.743l-75.6949-75.6941c-.9899-.99-.9899-2.5947 0-3.5842.9889-.9899 2.5947-.9899 3.5836 0l75.6943 75.6943c.99.99.99 2.595 0 3.584-.494.495-1.143.743-1.792.743z"/><path d="m103.848 86.7202c-.648 0-1.298-.2474-1.792-.7421l-52.5562-52.5574c-.99-.99-.99-2.5948 0-3.5842.9889-.9894 2.5947-.9899 3.5836 0l52.5566 52.557c.99.9899.99 2.5947 0 3.5841-.494.4952-1.143.7426-1.792.7426z"/><path d="m142.132 125.004c-.648 0-1.297-.247-1.792-.742l-29.497-29.4981c-.99-.9899-.99-2.5947 0-3.5841.988-.9895 2.594-.9895 3.583 0l29.498 29.4982c.99.99.99 2.594 0 3.584-.495.494-1.143.742-1.792.742z"/><path d="m147.796 130.669c-.664 0-1.318-.268-1.789-.74-.117-.116-.223-.248-.314-.385-.092-.137-.173-.284-.233-.441-.066-.152-.112-.309-.147-.471-.031-.163-.052-.33-.052-.497 0-.669.274-1.318.746-1.789.116-.117.243-.223.385-.32.137-.091.284-.167.436-.233.152-.061.314-.111.476-.142.324-.066.664-.066.988 0 .162.031.325.081.476.142.153.066.3.142.436.233.137.097.269.203.386.32.472.471.74 1.125.74 1.789 0 .167-.015.334-.046.497-.035.162-.081.319-.147.471-.061.157-.142.304-.233.441s-.198.269-.314.385c-.116.117-.249.223-.386.315-.136.091-.283.167-.436.233-.152.061-.314.111-.476.142-.161.035-.328.05-.496.05z"/><path d="m51.0989 56.0027c-.6483 0-1.2976-.2473-1.7918-.7421l-10.8239-10.8234c-.99-.9899-.99-2.5947 0-3.5842.9889-.9899 2.5947-.9899 3.5836 0l10.824 10.824c.9899.9899.9899 2.5947 0 3.5841-.4942.4943-1.1436.7416-1.7919.7416z"/><path d="m56.6743 61.5764c-.6691 0-1.323-.2686-1.7944-.74s-.74-1.1253-.74-1.7893c0-.1673.0152-.3346.0507-.4968.0309-.1622.0811-.3244.1419-.4764.0659-.1521.1419-.2991.2332-.436.0912-.1419.1977-.2686.3142-.3852.588-.588 1.4695-.8566 2.2911-.6944.1622.0355.3194.0811.472.147.152.0608.299.1419.4354.2332.1419.0912.2686.1976.3857.3142.1211.1166.2276.2433.3193.3852.0913.1369.1673.2839.2332.436.0608.152.1115.3142.1414.4764.0355.1622.0512.3295.0512.4968 0 .1622-.0152.3294-.0512.4916-.0304.1623-.0806.3194-.1414.4765-.0659.1521-.1419.2991-.2332.4359-.0963.1369-.1982.2687-.3193.3853-.1166.1165-.2433.223-.3857.3142-.1369.0913-.2839.1724-.4354.2332-.1526.0659-.3092.1115-.472.147-.1622.0304-.3294.0456-.4967.0456z"/><path d="m131.116 136.02c-.649 0-1.298-.247-1.792-.742l-68.1898-68.1903c-.99-.9899-.99-2.5947 0-3.5842.9889-.9894 2.5947-.9894 3.5836 0l68.1892 68.1895c.99.99.99 2.595 0 3.584-.494.496-1.143.743-1.791.743z"/><path d="m108.575 135.512c-.648 0-1.297-.248-1.791-.742l-90.8411-90.8412c-.9899-.9899-.9899-2.5947 0-3.5841.9889-.99 2.5947-.99 3.5836 0l90.8405 90.8403c.99.99.99 2.595 0 3.585-.495.494-1.143.742-1.792.742z"/><path d="m126.928 153.865c-.648 0-1.297-.248-1.791-.742l-13.348-13.348c-.99-.99-.99-2.595 0-3.584.989-.99 2.595-.99 3.583 0l13.348 13.348c.99.989.99 2.594 0 3.584-.495.494-1.143.742-1.792.742z"/><path d="m46.1316 95.1005c-.6483 0-1.2976-.2474-1.7918-.7421l-18.3978-18.3983c-.9899-.9899-.9899-2.5947 0-3.5841.989-.9894 2.5948-.9894 3.5837 0l18.3977 18.3977c.99.99.99 2.5948 0 3.5842-.4942.4947-1.1435.7426-1.7918.7426z"/><path d="m80.0926 129.061c-.6483 0-1.2976-.247-1.7918-.742l-25.2594-25.259c-.9899-.99-.9899-2.595 0-3.5841.9889-.9895 2.5947-.9895 3.5837 0l25.2594 25.2591c.9899.99.9899 2.595 0 3.584-.4943.495-1.1436.742-1.7919.742z"/><path d="m123.516 172.484c-.649 0-1.298-.247-1.792-.742l-38.3543-38.354c-.99-.99-.99-2.595 0-3.584.9889-.99 2.5947-.99 3.5836 0l38.3537 38.354c.99.99.99 2.594 0 3.584-.494.495-1.143.742-1.791.742z"/><path d="m185.969 173.391c2.379 0 4.308-1.929 4.308-4.309 0-2.379-1.929-4.308-4.308-4.308-2.38 0-4.309 1.929-4.309 4.308 0 2.38 1.929 4.309 4.309 4.309z" opacity=".27"/><path d="m161.905 162.239c3.36 0 6.083-2.723 6.083-6.082s-2.723-6.083-6.083-6.083c-3.359 0-6.082 2.724-6.082 6.083s2.723 6.082 6.082 6.082z" opacity=".27"/><path d="m163.286 190.371c4.689 0 8.49-3.801 8.49-8.49s-3.801-8.49-8.49-8.49-8.49 3.801-8.49 8.49 3.801 8.49 8.49 8.49z" opacity=".27"/></g></g></svg>